<?xml version="1.0" encoding="UTF-8"?>
<svg width="32px" height="32px" viewBox="0 0 32 32" version="1.1" xmlns="http://www.w3.org/2000/svg" xmlns:xlink="http://www.w3.org/1999/xlink">
    <title>circle-1</title>
    <g id="circle-1" stroke="none" stroke-width="1" fill="#327AEC" fill-rule="evenodd">
        <g id="Page-1" fill="#327AEC">
            <path d="M16,3.65714286 C9.19405714,3.65714286 3.65714286,9.19405714 3.65714286,16 C3.65714286,22.8059429 9.19405714,28.3428571 16,28.3428571 C22.8059429,28.3428571 28.3428571,22.8059429 28.3428571,16 C28.3428571,9.19405714 22.8059429,3.65714286 16,3.65714286 M16,32 C7.17714286,32 0,24.8228571 0,16 C0,7.17714286 7.17714286,0 16,0 C24.8228571,0 32,7.17714286 32,16 C32,24.8228571 24.8228571,32 16,32" id="Fill-1"></path>
            <path d="M15.5,11.0767844 C13.0612833,11.0767844 11.0767844,13.0612833 11.0767844,15.5 C11.0767844,17.9387167 13.0612833,19.9232156 15.5,19.9232156 C17.9405191,19.9232156 19.9232156,17.9387167 19.9232156,15.5 C19.9232156,13.0612833 17.9405191,11.0767844 15.5,11.0767844 M15.5,23 C11.3651766,23 8,19.6366258 8,15.5 C8,11.3651766 11.3651766,8 15.5,8 C19.6366258,8 23,11.3651766 23,15.5 C23,19.6366258 19.6366258,23 15.5,23" id="Fill-3"></path>
        </g>
    </g>
</svg>