<svg xmlns="http://www.w3.org/2000/svg" xmlns:xlink="http://www.w3.org/1999/xlink" x="0px" y="0px"
	 viewBox="0 0 40.5 43.5" enable-background="new 0 0 40.5 43.5" xml:space="preserve">
<path fill="#327AEC" d="M19.6,38.5c-9.5,0-17.1-7.7-17.1-17.1S10.2,4.3,19.6,4.3s17.1,7.7,17.1,17.1S29.1,38.5,19.6,38.5z M20,18.9
	c-7.5,2.3-14.8,2.1-15,2.1c0,0.2,0,0.3,0,0.5c0,3.8,1.4,7.2,3.8,9.8l0,0c4-7.1,11.9-9.7,11.9-9.7c0.2-0.1,0.4-0.1,0.6-0.2
	C20.9,20.5,20.5,19.7,20,18.9z M13.4,8.2c-4.1,1.9-7.1,5.7-8.1,10.2c0.4,0,6.5,0.1,13.5-1.8C16.3,12.1,13.6,8.4,13.4,8.2z
	 M22.2,23.8C22.2,23.8,22.2,23.8,22.2,23.8c-0.1,0-8.8,3.1-11.6,9.2c-0.1-0.1-0.3-0.2-0.3-0.2c2.5,2.1,5.8,3.3,9.3,3.3
	c2,0,4-0.4,5.7-1.2C25.1,33.6,24.3,29.1,22.2,23.8z M16.1,7.2C16.1,7.2,16.1,7.2,16.1,7.2C16.1,7.2,16.1,7.2,16.1,7.2z M19.6,6.8
	c-1.2,0-2.3,0.2-3.5,0.4c0.2,0.3,3,3.9,5.5,8.5c5.5-2.1,7.6-5.2,7.6-5.3C26.7,8.1,23.4,6.8,19.6,6.8z M31,12.1c0,0-2.4,3.4-8.2,5.8
	c0.3,0.7,0.7,1.4,1,2.1c0.1,0.2,0.2,0.5,0.3,0.8c5-0.6,10,0.4,10.2,0.5C34.2,17.8,33,14.6,31,12.1z M25,23.1
	c1.9,5.3,2.7,9.6,2.9,10.5c3.3-2.2,5.6-5.7,6.3-9.8C33.8,23.6,29.7,22.3,25,23.1z"/>
</svg>