<svg width="293" height="82" viewBox="0 0 293 82" fill="none" xmlns="http://www.w3.org/2000/svg">
<path d="M60.2565 21.9444C62.5966 6.97847 71.3718 10.2575 71.3718 4.11982C71.3718 1.42933 68.9482 0 66.8588 0C63.8502 0 61.0923 2.94273 63.0144 6.55808C65.3545 5.12876 66.7753 6.47401 66.7753 7.81925C66.7753 8.82819 65.9395 9.9212 64.1009 9.9212C54.1556 9.9212 44.0433 1.5134 33.4294 1.5134C24.4035 1.5134 17.9683 7.6511 17.9683 15.4703C17.9683 22.8692 24.1528 27.5776 30.3372 27.5776C40.1153 27.5776 46.4669 15.2181 36.6888 10.762C34.9337 13.0321 32.5937 14.1251 30.3372 14.1251C27.7464 14.1251 24.8213 12.7799 24.8213 8.82819C24.8213 4.37205 28.4986 2.27011 33.6801 2.27011C44.0433 2.27011 53.1528 10.5097 63.5995 10.5097V10.5938C56.9972 10.9301 44.7954 13.2843 43.1239 24.3826L38.7781 53.0532C36.6052 67.5987 29.5015 74.9135 19.0548 74.9135C10.5303 74.9135 3.42651 68.3554 3.42651 58.8546C3.42651 50.0264 9.7781 43.7206 15.7118 43.7206C18.804 43.7206 22.6484 45.4021 22.6484 49.7742C22.6484 54.2303 19.4726 57.5934 15.4611 57.6775C13.9568 62.8063 18.0519 66.6738 22.8156 66.6738C29.4179 66.6738 33.6801 61.9655 33.6801 56.3323C33.6801 47.8404 24.9885 43.0479 16.9654 43.0479C8.5245 43.0479 0 49.1856 0 59.0227C0 70.037 10.1124 75.7543 18.6369 75.7543C29.8358 75.7543 52.4006 72.3071 55.7435 50.8672L60.2565 21.9444Z" fill="url(#paint0_linear)"/>
<path d="M93.6594 59.3161C91.4147 72.9802 84.6805 80.6882 74.1584 80.6882C63.5661 80.6882 59.8482 73.5408 59.8482 67.3043C59.8482 59.9467 65.1795 54.6913 70.1599 54.6913C72.7554 54.6913 75.9822 56.0927 75.9822 59.7365C75.9822 63.4504 73.3166 66.2533 69.9495 66.3233C68.6868 70.5977 72.1241 73.8211 76.1225 73.8211C81.6642 73.8211 85.2417 69.897 85.2417 65.2022C85.2417 58.1248 77.9463 54.1307 71.2122 54.1307C64.1272 54.1307 56.9722 59.246 56.9722 67.4445C56.9722 75.3627 63.4258 81.3889 74.1584 81.3889C81.5239 81.3889 91.555 77.4649 94.5012 59.1759L98.6399 33.6695L129.575 77.4649L136.59 32.6185C137.361 27.5732 139.817 18.2536 144.937 18.2536C147.182 18.2536 148.375 20.0755 148.375 21.9674C148.375 23.439 147.673 24.9805 146.2 25.6112C146.902 27.5032 148.234 28.274 149.988 28.274C153.145 28.274 157.143 25.7513 157.143 21.0565C157.143 18.3237 155.67 14.3996 150.198 14.3996C144.096 14.3996 138.063 18.4638 135.608 33.8798L132.1 55.9526L111.758 26.8725C114.213 26.382 116.457 24.9805 116.457 22.0375C116.457 19.1645 114.283 18.2536 112.74 18.2536C110.144 18.2536 107.829 20.7061 109.443 23.7192C111.407 22.528 112.599 23.5791 112.599 24.8404C112.599 25.6112 112.178 26.5221 109.653 26.5221C102.708 26.5221 95.5534 19.5149 86.8551 19.5149C79.3493 19.5149 73.9479 24.7003 73.9479 31.0769C73.9479 37.3133 79.1388 41.2374 84.2596 41.2374C92.6072 41.2374 97.8683 30.9367 89.661 27.2229C88.1879 29.1148 86.2238 30.0258 84.3298 30.0258C82.1552 30.0258 79.7 28.9046 79.7 25.6112C79.7 21.8974 82.7865 20.1455 87.1357 20.1455C94.9221 20.1455 99.9727 25.6813 107.268 26.8024C103.059 27.0126 99.2011 26.9426 95.343 25.7513C97.6578 27.9937 97.6578 34.8608 96.8862 39.6257L93.6594 59.3161Z" fill="#72F4A0"/>
<path d="M137.405 64.7541C135.937 73.3353 140.131 75.7073 145.443 75.7073C147.051 75.7073 148.798 75.498 150.546 75.1492L150.756 74.9399C148.169 73.7539 149.777 65.1727 150.616 60.2891L153.272 44.2429C154.041 39.4988 152.643 38.0337 148.659 38.0337C145.304 38.0337 140.411 39.5686 137.964 40.7546L138.174 40.9639C140.131 40.336 141.249 41.3825 141.04 42.7778L137.405 64.7541Z" fill="url(#paint1_linear)"/>
<path d="M156.367 60.8472C156.367 70.6842 162.937 75.6376 170.696 75.6376C177.755 75.6376 185.794 71.5214 190.756 63.2192L190.337 63.0099C187.471 66.2889 183.627 67.9633 179.503 67.9633C173.981 67.9633 169.507 64.0564 169.507 55.6845C169.507 49.7544 172.373 38.5919 179.293 38.5919C182.438 38.5919 184.046 40.7546 184.046 43.1266C184.046 45.2894 182.648 47.5917 179.782 48.3591C179.293 52.545 182.159 54.4985 185.304 54.4985C190.057 54.4985 193.273 50.6614 193.273 46.6847C193.273 39.7081 184.815 38.0337 179.852 38.0337C166.572 38.0337 156.367 48.7079 156.367 60.8472Z" fill="url(#paint2_linear)"/>
<path d="M217.858 38.0337C205.276 38.0337 195.001 47.9405 195.001 59.8705C195.001 69.0796 201.921 75.6376 211.917 75.6376C224.359 75.6376 234.843 65.3122 234.843 53.7311C234.843 44.522 227.853 38.0337 217.858 38.0337ZM211.987 75.0794C208.771 75.0794 207.793 72.0097 207.793 67.8935C207.793 60.6379 210.099 38.5919 217.788 38.5919C221.073 38.5919 221.982 41.7313 221.982 45.8475C221.982 54.0799 219.745 74.1027 211.987 75.0794Z" fill="url(#paint3_linear)"/>
<path d="M237.253 64.7541C235.365 75.9864 245.081 76.2654 250.114 75.498L250.323 75.2887C247.947 74.1027 249.624 65.1727 250.463 60.2891L255.915 26.2433C256.684 21.4992 255.286 20.0341 251.302 20.0341C247.947 20.0341 243.054 21.569 240.608 22.755L240.817 22.9643C242.774 22.3364 243.893 23.3829 243.683 24.7782L237.253 64.7541Z" fill="url(#paint4_linear)"/>
<path d="M269.864 52.9636L269.794 53.2427C286.989 57.7775 293 51.0102 293 45.8475C293 39.3593 285.032 38.0337 279.58 38.0337C266.299 38.0337 256.094 48.7777 256.094 60.7076C256.094 70.0563 262.105 75.6376 270.563 75.6376C278.671 75.6376 286.08 70.4749 290.484 63.2192L290.064 63.0099C286.779 66.847 282.515 67.9633 279.3 67.9633C271.541 67.9633 268.885 61.4751 269.305 54.0799C269.724 47.0335 273.568 38.5919 278.95 38.5919C281.327 38.5919 283.005 40.4058 283.005 43.1266C283.005 48.08 279.3 53.452 269.864 52.9636Z" fill="url(#paint5_linear)"/>
<defs>
<linearGradient id="paint0_linear" x1="0" y1="0" x2="73.0467" y2="71.4016" gradientUnits="userSpaceOnUse">
<stop stop-color="#71F5CC"/>
<stop offset="0.390285" stop-color="#78F4B6"/>
<stop offset="1" stop-color="#9BF24D"/>
</linearGradient>
<linearGradient id="paint1_linear" x1="137.109" y1="20.0341" x2="170.21" y2="116.115" gradientUnits="userSpaceOnUse">
<stop stop-color="#71F5CC"/>
<stop offset="0.390285" stop-color="#78F4B6"/>
<stop offset="1" stop-color="#9BF24D"/>
</linearGradient>
<linearGradient id="paint2_linear" x1="137.109" y1="20.0341" x2="170.21" y2="116.115" gradientUnits="userSpaceOnUse">
<stop stop-color="#71F5CC"/>
<stop offset="0.390285" stop-color="#78F4B6"/>
<stop offset="1" stop-color="#9BF24D"/>
</linearGradient>
<linearGradient id="paint3_linear" x1="137.109" y1="20.0341" x2="170.21" y2="116.115" gradientUnits="userSpaceOnUse">
<stop stop-color="#71F5CC"/>
<stop offset="0.390285" stop-color="#78F4B6"/>
<stop offset="1" stop-color="#9BF24D"/>
</linearGradient>
<linearGradient id="paint4_linear" x1="137.109" y1="20.0341" x2="170.21" y2="116.115" gradientUnits="userSpaceOnUse">
<stop stop-color="#71F5CC"/>
<stop offset="0.390285" stop-color="#78F4B6"/>
<stop offset="1" stop-color="#9BF24D"/>
</linearGradient>
<linearGradient id="paint5_linear" x1="137.109" y1="20.0341" x2="170.21" y2="116.115" gradientUnits="userSpaceOnUse">
<stop stop-color="#71F5CC"/>
<stop offset="0.390285" stop-color="#78F4B6"/>
<stop offset="1" stop-color="#9BF24D"/>
</linearGradient>
</defs>
</svg>
