<?xml version="1.0" encoding="UTF-8"?>
<svg width="64px" height="102px" viewBox="0 0 64 102" version="1.1" xmlns="http://www.w3.org/2000/svg" xmlns:xlink="http://www.w3.org/1999/xlink">
    <title>gulp</title>
    <g id="gulp" stroke="none" stroke-width="1" fill="none" fill-rule="evenodd">
        <g id="Page-1">
            <polygon id="Fill-1" fill="#FF3B53" points="15.4186471 39 8 102 56.7048235 102 62 39"></polygon>
            <path d="M0,36 L64,36 L64,26 L0,26 L0,36 Z M2.98645258,33.1256375 L61.0135474,33.1256375 L61.0135474,28.8728172 L2.98645258,28.8728172 L2.98645258,33.1256375 Z" id="Fill-2" fill="#000000"></path>
            <path d="M27,29 L37,29 L37,0 L27,0 L27,29 Z M29.8870162,26.0524695 L34.1145443,26.0524695 L34.1145443,2.94912551 L29.8870162,2.94912551 L29.8870162,26.0524695 Z" id="Fill-3" fill="#000000"></path>
            <polygon id="Fill-4" fill="#000000" points="54.7362684 99 10.8908211 99 6 36.2509642 9.17457596 36 13.8361399 95.8030042 51.7145306 95.8030042 54.8190558 36.0415609 58 36.2094032"></polygon>
            <path d="M37.815543,65.7711888 L47.6196542,61.3158695 C47.6196542,61.3158695 44.4704356,46.6513845 24.9688316,54.119932 C9.75582998,59.946367 12.897092,85.8281909 28.0114319,87.7041997 C44.5770539,89.7608732 50.3248951,80.8502346 49.9859443,68.5134201 L31.7319337,68.5134201 L31.7319337,76.7385008 L36.4629226,76.3949154 C36.4629226,76.3949154 35.2980777,79.1371466 32.5005404,79.5936475 C29.7014118,80.0517614 25.4207659,75.7093575 26.321452,68.8553924 C27.2237294,62.0014273 32.858587,63.0305706 37.815543,65.7711888" id="Fill-5" fill="#F9F7F7"></path>
        </g>
    </g>
</svg>