<?xml version="1.0" encoding="UTF-8"?>
<svg width="90px" height="103px" viewBox="0 0 90 103" version="1.1" xmlns="http://www.w3.org/2000/svg" xmlns:xlink="http://www.w3.org/1999/xlink">
    <title>pizza</title>
    <defs>
        <polygon id="path-1" points="0 103 90 103 90 0 0 0"></polygon>
    </defs>
    <g id="pizza" stroke="none" stroke-width="1" fill="none" fill-rule="evenodd">
        <g id="Page-1">
            <path d="M53,61 C53,65.97 48.97,70 44,70 C39.03,70 35,65.97 35,61 C35,56.03 39.03,52 44,52 C48.97,52 53,56.03 53,61 Z" id="Fill-1" fill="#020202"></path>
            <path d="M63,39 C63,43.97 58.97,48 54,48 C49.03,48 45,43.97 45,39 C45,34.03 49.03,30 54,30 C58.97,30 63,34.03 63,39" id="Fill-3" fill="#020202"></path>
            <mask id="mask-2" fill="white">
                <use xlink:href="#path-1"></use>
            </mask>
            <g id="Clip-6"></g>
            <path d="M3.04784881,10.0417292 L86.9521512,10.0417292 L86.9521512,2.95827079 L3.04784881,2.95827079 L3.04784881,10.0417292 Z M0,13 L90,13 L90,0 L0,0 L0,13 Z" id="Fill-5" fill="#000000" mask="url(#mask-2)"></path>
            <polygon id="Fill-7" fill="#000000" mask="url(#mask-2)" points="43.4154869 103 8 12.4452146 11.4407139 11.0839544 43.6481826 93.4351983 80.6288959 11 84 12.5291689"></polygon>
            <path d="M43,26 C43,30.97 38.97,35 34,35 C29.03,35 25,30.97 25,26 C25,21.03 29.03,17 34,17 C38.97,17 43,21.03 43,26" id="Fill-8" fill="#020202" mask="url(#mask-2)"></path>
            <path d="M64,37 C64,41.97 59.97,46 55,46 C50.03,46 46,41.97 46,37 C46,32.03 50.03,28 55,28 C59.97,28 64,32.03 64,37" id="Fill-9" fill="#FF3B53" mask="url(#mask-2)"></path>
            <path d="M51.8883768,56.595982 C52.6642558,61.5052164 49.3127785,66.1124978 44.4035441,66.8883768 C39.4943098,67.6642558 34.8870283,64.3127785 34.1111493,59.4035441 C33.33727,54.4943098 36.6867476,49.8870283 41.595982,49.1111493 C46.5052164,48.33727 51.1124978,51.6867476 51.8883768,56.595982" id="Fill-10" fill="#FF3B53" mask="url(#mask-2)"></path>
            <path d="M26.5007565,32.792719 C22.1974801,30.3071971 20.7217283,24.8042558 23.2073103,20.5010837 C25.6928924,16.195912 31.195967,14.7221955 35.4992435,17.2077173 C39.8025199,19.6912395 41.2782717,25.1941808 38.7926897,29.4993526 C36.3071076,33.8025247 30.804033,35.2782408 26.5007565,32.792719" id="Fill-11" fill="#FF3B53" mask="url(#mask-2)"></path>
        </g>
    </g>
</svg>