<?xml version="1.0" encoding="UTF-8"?>
<svg width="66px" height="54px" viewBox="0 0 66 54" version="1.1" xmlns="http://www.w3.org/2000/svg" xmlns:xlink="http://www.w3.org/1999/xlink">
    <title>smoke</title>
    <defs>
        <polygon id="path-1" points="20.8235461 0.543615385 0.002669746 0.543615385 0.002669746 36.8293731 20.8235461 36.8293731 20.8235461 0.543615385"></polygon>
    </defs>
    <g id="smoke" stroke="none" stroke-width="1" fill="none" fill-rule="evenodd">
        <g id="Page-1">
            <polygon id="Fill-1" fill="#FF3B53" points="46 41 47.7641129 51.1891892 57.6431452 54 60 41"></polygon>
            <path d="M0,53 L57,53 L57,42 L0,42 L0,53 Z M2.83589144,50.0013637 L54.1626906,50.0013637 L54.1626906,45.0001364 L2.83589144,45.0001364 L2.83589144,50.0013637 Z" id="Fill-2" fill="#000000"></path>
            <g id="Group-5" transform="translate(45.000000, 0.000000)">
                <mask id="mask-2" fill="white">
                    <use xlink:href="#path-1"></use>
                </mask>
                <g id="Clip-4"></g>
                <path d="M7.58776875,36.8293731 C7.37214375,36.7696038 2.29058125,35.3322962 0.56558125,31.1584115 C-0.47229375,28.6466808 -0.07410625,25.7848731 1.75295625,22.6512577 C3.92070625,18.9299115 7.65389375,16.3142962 10.9472063,14.0060654 C16.9401438,9.80656538 19.9100188,7.36883462 16.5175188,2.06645 L18.9468938,0.542334615 C23.9580188,8.37637308 17.9291438,12.6014885 12.6089563,16.32995 C9.40764375,18.5727192 6.09708125,20.8923346 4.24270625,24.0729115 C2.88714375,26.3996423 2.54358125,28.4161423 3.22064375,30.0697577 C4.40226875,32.9486423 8.32089375,34.0771423 8.35970625,34.0885269 L7.58776875,36.8293731 Z" id="Fill-3" fill="#020202" mask="url(#mask-2)"></path>
            </g>
        </g>
    </g>
</svg>