<?xml version="1.0" encoding="UTF-8"?>
<svg width="41px" height="41px" viewBox="0 0 41 41" version="1.1" xmlns="http://www.w3.org/2000/svg" xmlns:xlink="http://www.w3.org/1999/xlink">
    <title>squiggly-2</title>
    <defs>
        <polygon id="path-1" points="20.44455 40.0911 40.889 40.0911 40.889 0.0001 0.0001 0.0001 0.0001 40.0911 20.44455 40.0911"></polygon>
    </defs>
    <g id="squiggly-2" stroke="none" stroke-width="1" fill="none" fill-rule="evenodd">
        <g id="Page-1">
            <mask id="mask-2" fill="white">
                <use xlink:href="#path-1"></use>
            </mask>
            <g id="Clip-2"></g>
            <path d="M3.9951,40.0911 L0.0001,39.9611 L0.0641,37.9631 C0.1061,36.6801 0.6411,25.3381 6.5951,22.2741 C9.2571,20.9031 12.3671,21.3821 15.8391,23.6971 C20.2221,26.6181 23.8731,27.3481 26.4021,25.8111 C28.7221,24.3991 29.6711,21.2731 29.4091,18.9151 C28.9081,14.4091 28.6471,6.2541 32.5241,2.2691 C34.1521,0.5951 36.3571,-0.1779 38.8961,0.0341 L40.8891,0.2001 L40.5571,4.1871 L38.5641,4.0211 C37.2011,3.9071 36.1901,4.2371 35.3911,5.0581 C33.4251,7.0781 32.6751,12.0931 33.3851,18.4731 C33.7741,21.9791 32.4061,26.8401 28.4821,29.2281 C25.7261,30.9051 20.9111,31.8851 13.6201,27.0251 C11.4491,25.5771 9.7021,25.1751 8.4271,25.8301 C5.4971,27.3351 4.1951,34.1511 4.0621,38.0931 L3.9951,40.0911 Z" id="Fill-1" fill="#000000" mask="url(#mask-2)"></path>
        </g>
    </g>
</svg>