<?xml version="1.0" encoding="UTF-8"?>
<svg width="48px" height="20px" viewBox="0 0 48 20" version="1.1" xmlns="http://www.w3.org/2000/svg" xmlns:xlink="http://www.w3.org/1999/xlink">
    <title>squiggly-1</title>
    <defs>
        <polygon id="path-1" points="24 20 0 20 0 0 24 0 48 0 48 20 24 20"></polygon>
    </defs>
    <g id="squiggly-1" stroke="none" stroke-width="1" fill="none" fill-rule="evenodd">
        <g id="Page-1">
            <mask id="mask-2" fill="white">
                <use xlink:href="#path-1"></use>
            </mask>
            <g id="Clip-2"></g>
            <path d="M3.75105114,20 L0,16.2219551 L1.87618854,14.3336004 C13.0073566,3.125 21.9043354,5.57959402 27.4095897,9.61004274 C31.4748858,12.588141 35.9339827,13.3547009 39.0459364,11.6025641 C41.677904,10.1228632 42.9600767,7.09268162 42.6524613,3.07291667 L42.4495943,0.409989316 L47.7373963,0 L47.9402634,2.66292735 C48.4083161,8.78872863 46.1091564,13.7473291 41.6314966,16.2673611 C36.6937396,19.0438034 30.048187,18.147703 24.2896804,13.9316239 C18.6345962,9.78899573 12.5300224,11.1565171 5.62591375,18.1103098 L3.75105114,20 Z" id="Fill-1" fill="#000000" mask="url(#mask-2)"></path>
        </g>
    </g>
</svg>