<?xml version="1.0" encoding="UTF-8"?>
<svg width="40px" height="20px" viewBox="0 0 40 20" version="1.1" xmlns="http://www.w3.org/2000/svg" xmlns:xlink="http://www.w3.org/1999/xlink">
    <title>VHS</title>
    <g id="VHS" stroke="none" stroke-width="1" fill="none" fill-rule="evenodd">
        <g id="Page-1">
            <polygon id="Fill-1" fill="#000000" points="0 19.2213 39.055 19.2213 39.055 0.0003 0 0.0003"></polygon>
            <polygon id="Fill-2" fill="#FFFFFF" points="10.458 14.5613 28.598 14.5613 28.598 4.9503 10.458 4.9503"></polygon>
            <polygon id="Fill-3" fill="#000000" points="16.2261 6.2853 14.4401 12.9143 13.3901 12.9143 11.5771 6.2853 12.3871 6.2853 13.9241 12.3523 15.5081 6.2853"></polygon>
            <polygon id="Fill-4" fill="#000000" points="21.1978 6.2853 21.1978 12.9143 20.4148 12.9143 20.4148 9.8763 17.9288 9.8763 17.9288 12.9143 17.1468 12.9143 17.1468 6.2853 17.9288 6.2853 17.9288 9.2503 20.4148 9.2503 20.4148 6.2853"></polygon>
            <g id="Group-11" transform="translate(4.000000, 4.221300)">
                <path d="M20.6411,2.5338 C20.2971,2.5338 20.0151,2.6148 19.7941,2.7778 C19.5731,2.9398 19.4631,3.1968 19.4631,3.5468 C19.4631,3.7058 19.4841,3.8468 19.5271,3.9698 C19.5701,4.0928 19.6421,4.2028 19.7431,4.3018 C19.8451,4.3998 19.9781,4.4928 20.1441,4.5818 C20.3091,4.6718 20.5161,4.7618 20.7611,4.8538 C21.0001,4.9458 21.2271,5.0468 21.4421,5.1578 C21.6571,5.2678 21.8461,5.4028 22.0081,5.5628 C22.1711,5.7218 22.3001,5.9158 22.3951,6.1428 C22.4901,6.3698 22.5371,6.6458 22.5371,6.9708 C22.5371,7.2228 22.4871,7.4628 22.3861,7.6898 C22.2851,7.9168 22.1431,8.1148 21.9621,8.2838 C21.7811,8.4518 21.5651,8.5858 21.3131,8.6838 C21.0611,8.7818 20.7851,8.8308 20.4851,8.8308 C20.1781,8.8308 19.9091,8.7928 19.6791,8.7158 C19.4491,8.6398 19.2511,8.5378 19.0851,8.4118 C18.9191,8.2868 18.7831,8.1438 18.6761,7.9848 C18.5681,7.8248 18.4831,7.6588 18.4221,7.4868 L19.0851,7.2388 C19.1281,7.3618 19.1841,7.4808 19.2551,7.5968 C19.3261,7.7138 19.4161,7.8168 19.5271,7.9058 C19.6381,7.9948 19.7711,8.0668 19.9281,8.1218 C20.0841,8.1778 20.2731,8.2048 20.4941,8.2048 C20.6411,8.2048 20.7881,8.1848 20.9361,8.1458 C21.0831,8.1048 21.2171,8.0388 21.3361,7.9478 C21.4561,7.8558 21.5531,7.7328 21.6261,7.5788 C21.7001,7.4258 21.7371,7.2388 21.7371,7.0168 C21.7371,6.7838 21.7071,6.5908 21.6491,6.4378 C21.5911,6.2838 21.4991,6.1488 21.3731,6.0328 C21.2471,5.9158 21.0831,5.8108 20.8811,5.7198 C20.6781,5.6268 20.4351,5.5228 20.1531,5.4058 C19.6561,5.2038 19.2891,4.9578 19.0531,4.6698 C18.8161,4.3808 18.6981,4.0248 18.6981,3.6008 C18.6981,3.3678 18.7411,3.1488 18.8271,2.9428 C18.9131,2.7378 19.0391,2.5598 19.2051,2.4088 C19.3701,2.2588 19.5721,2.1408 19.8081,2.0548 C20.0441,1.9688 20.3161,1.9258 20.6221,1.9258 C21.1441,1.9258 21.5531,2.0318 21.8471,2.2438 C22.1411,2.4548 22.3691,2.7418 22.5291,3.1038 L21.8471,3.3438 C21.7431,3.0858 21.5991,2.8868 21.4141,2.7448 C21.2301,2.6038 20.9731,2.5338 20.6411,2.5338" id="Fill-5" fill="#000000"></path>
                <path d="M4.1367,0.7296 L4.1367,10.3406 C4.1367,10.3406 -4.2503,6.2376 4.1367,0.7296" id="Fill-7" fill="#FFFFFF"></path>
                <path d="M26.9468,10.1949 L26.9468,0.5839 C26.9468,0.5839 35.3338,4.6869 26.9468,10.1949" id="Fill-9" fill="#FFFFFF"></path>
            </g>
        </g>
    </g>
</svg>